<mxfile host="app.diagrams.net" agent="Mozilla/5.0 (Macintosh; Intel Mac OS X 10_15_7) AppleWebKit/537.36 (KHTML, like Gecko) Chrome/127.0.0.0 Safari/537.36" version="24.7.8">
  <diagram name="Page-1" id="4dOyhYhrKmfklymuGDfp">
    <mxGraphModel dx="1046" dy="476" grid="1" gridSize="10" guides="1" tooltips="1" connect="1" arrows="1" fold="1" page="1" pageScale="1" pageWidth="850" pageHeight="1100" math="0" shadow="0">
      <root>
        <mxCell id="0" />
        <mxCell id="1" parent="0" />
        <mxCell id="RvI1eBuFdVO1HJEAqo6M-1" value="" style="sketch=0;outlineConnect=0;fontColor=#232F3E;gradientColor=none;fillColor=#ED7100;strokeColor=none;dashed=0;verticalLabelPosition=bottom;verticalAlign=top;align=center;html=1;fontSize=12;fontStyle=0;aspect=fixed;pointerEvents=1;shape=mxgraph.aws4.lambda_function;" parent="1" vertex="1">
          <mxGeometry x="118.89" y="350" width="41.11" height="41.11" as="geometry" />
        </mxCell>
        <mxCell id="O3jh_QV1pDACcl0PKL4t-6" style="edgeStyle=orthogonalEdgeStyle;rounded=0;orthogonalLoop=1;jettySize=auto;html=1;" edge="1" parent="1" source="O3jh_QV1pDACcl0PKL4t-5" target="RvI1eBuFdVO1HJEAqo6M-1">
          <mxGeometry relative="1" as="geometry" />
        </mxCell>
        <mxCell id="O3jh_QV1pDACcl0PKL4t-5" value="" style="shape=image;verticalLabelPosition=bottom;labelBackgroundColor=default;verticalAlign=top;aspect=fixed;imageAspect=0;image=https://www.tiingo.com/dist/images/tiingo/logos/tiingo_full_light_color.svg;" vertex="1" parent="1">
          <mxGeometry x="79.45" y="290" width="120" height="28.4" as="geometry" />
        </mxCell>
      </root>
    </mxGraphModel>
  </diagram>
</mxfile>
